
<svg xmlns="http://www.w3.org/2000/svg" width="143" height="55" fill="none" viewBox="0 0 143 55"><path fill="#8B9091" d="M47.427.023v6.126c0 .23-.023.322-.3.322H.023V.275C.023.07.07.023.277.023h47.15ZM.023 12.138h47.081c.23 0 .323.046.323.298-.023 1.95-.023 3.901 0 5.851 0 .253-.092.299-.323.299H.024v-6.448Zm0 12.115h47.081c.23 0 .323.046.323.299-.023 1.95-.023 3.9 0 5.85 0 .253-.092.299-.323.299H.024v-6.448Zm0 12.115h47.035c.369 0 .369 0 .369.345v3.694c0 .688-.023 1.377 0 2.065 0 .275-.046.367-.346.344-.553-.023-1.13 0-1.683 0H.023v-6.448Zm0 12.115h46.989c.461 0 .392-.045.392.39v6.058H.254c-.208 0-.254-.046-.254-.252.023-2.065.023-4.13.023-6.196Z"></path><path fill="#194E90" d="M111.247 54.931c-.069-.436.092-.78.323-1.147a7208.337 7208.337 0 0 0 14.087-22.073c.046-.07.116-.115.116-.253h-6.156c-.554 0-1.084.046-1.614.115-.715.114-1.269.482-1.753.986-1.268 1.24-2.19 2.708-2.836 4.337-.069.16-.138.23-.322.207a3.494 3.494 0 0 0-.692 0c-.185 0-.231-.046-.208-.23.07-.62.116-1.216.185-1.835.161-1.584.323-3.167.461-4.773.023-.207.069-.253.277-.253h16.877c.23 0 .277.07.277.276 0 .275-.093.482-.208.688-4.727 7.412-9.453 14.8-14.18 22.211-.069.092-.115.184-.184.322h.323c1.752 0 3.481.023 5.234 0 1.268-.023 2.536-.115 3.781-.368a2.668 2.668 0 0 0 1.475-.894c1.245-1.469 2.191-3.121 2.905-4.888.07-.183.162-.275.346-.252.231.023.438.023.669 0 .161 0 .231.046.207.23-.069.688-.138 1.376-.207 2.087-.138 1.4-.277 2.8-.415 4.222-.046.436-.069.85-.115 1.285h-18.653Zm-13.096 0c0-.344 0-.688-.023-1.055 0-.16.046-.207.207-.23.646-.046 1.315-.069 1.937-.206.784-.184 1.222-.689 1.291-1.469.023-.183.023-.344.023-.527V33.82c0-.252-.023-.504-.046-.757-.069-.528-.392-.872-.876-1.078a7.681 7.681 0 0 0-2.26-.62c-.253-.023-.322-.114-.3-.344a3.896 3.896 0 0 0 0-.734c0-.184.07-.207.231-.207h9.984c.207 0 .254.07.254.253a4.233 4.233 0 0 0 0 .78c0 .183-.047.252-.231.275a9.355 9.355 0 0 0-2.098.367c-.738.23-1.061.643-1.13 1.423-.023.206-.023.413-.023.597V51.26c0 .23 0 .459.046.688.115.666.507 1.125 1.153 1.354a9.02 9.02 0 0 0 2.075.436c.161.023.208.069.208.23 0 .344-.047.688.023 1.032-3.482-.069-6.963-.069-10.445-.069Zm34.4 0c0-.344.023-.688 0-1.055 0-.16.046-.207.231-.23.645-.069 1.314-.069 1.936-.206.807-.184 1.269-.712 1.315-1.538V33.454c-.023-.734-.323-1.262-1.038-1.537-.715-.275-1.429-.482-2.19-.574-.208-.023-.277-.091-.277-.298.023-.275 0-.55 0-.826 0-.138.046-.184.185-.184h9.983c.254 0 .323.07.3.299-.023.23-.023.459 0 .688.023.23-.069.298-.277.298a8.147 8.147 0 0 0-1.821.299c-.969.252-1.338.711-1.384 1.72v17.898c0 .206 0 .413.046.62.116.665.484 1.124 1.13 1.33.692.23 1.383.39 2.098.436.162 0 .231.046.208.23-.023.344 0 .688 0 1.055-3.482.023-6.963.023-10.445.023ZM78.784.023c.392.115.76.298 1.06.62.554.596.646 1.468.23 2.156A1.88 1.88 0 0 1 78 3.65c-.784-.207-1.36-.941-1.36-1.745 0-.894.53-1.606 1.406-1.835a.174.174 0 0 0 .092-.046h.646Zm27.16 0c.046.092.138.069.231.092.853.298 1.406 1.17 1.245 2.019-.162.918-.923 1.583-1.845 1.56-.899 0-1.66-.665-1.821-1.583-.139-.872.415-1.744 1.291-2.042.069-.023.161 0 .207-.069.208.023.438.023.692.023Zm1.268 15.832c-.023.895-.092 1.721-.3 2.524-.484 1.95-1.752 3.075-3.712 3.442a13.97 13.97 0 0 1-2.19.23c-.161 0-.231-.023-.231-.207V19.09c0-.16.047-.206.208-.206.415-.023.807-.046 1.199-.16 1.037-.253 1.545-.918 1.66-2.066.046-.573.069-1.147.069-1.72v-7.16c0-.252.069-.298.3-.298h2.79c.207 0 .276.046.276.276v4.015c0 .16 0 .321.023.459.093.94.784 1.33 1.776 1.445h24.416a5.79 5.79 0 0 1-.438-1.606c-.369-2.661 1.061-4.91 3.62-5.759 1.66-.55 3.274-.39 4.911.115.139.046.185.114.185.275v2.639c0 .183-.046.23-.231.183a37.9 37.9 0 0 0-2.329-.344 3.968 3.968 0 0 0-1.798.207c-.738.252-1.153.803-1.314 1.537-.092.436-.069.872.069 1.308.3.895.991 1.262 1.868 1.4.599.091 1.198.045 1.798.045h2.928c.185 0 .231.046.231.23v2.57c0 .137-.023.23-.185.206h-33.339c-.531 0-1.061-.069-1.568-.298-.254-.115-.461-.298-.692-.528ZM54.344 12.62v-2.157c0-.183.046-.252.253-.252h2.906c.207 0 .253.069.253.275v3.694c0 1.63.715 2.547 2.26 3.029 1.037.321 2.121.367 3.205.344 1.268-.023 2.513-.137 3.712-.596.622-.253 1.222-.551 1.544-1.216a2.45 2.45 0 0 0 .162-.436c.092-.413-.023-.712-.369-.941-.738-.505-1.568-.85-2.306-1.331-1.06-.688-1.844-1.56-2.098-2.845-.207-1.102-.046-2.18.415-3.19.922-2.065 2.513-3.212 4.796-3.396 1.107-.091 2.144.115 3.182.46.115.045.161.091.161.229v2.638c0 .207-.07.207-.254.184-.945-.206-1.89-.344-2.882-.252-1.106.114-2.006.917-2.098 1.904-.046.528.139.94.554 1.24.415.297.853.55 1.314.756.576.276 1.13.574 1.66.941 1.222.826 1.614 1.996 1.406 3.419-.346 2.41-1.821 3.878-3.988 4.773-1.868.757-3.828.895-5.81.849-1.453-.023-2.86-.207-4.22-.735-1.43-.573-2.582-1.445-3.205-2.89-.369-.827-.484-1.722-.507-2.64-.046-.596-.046-1.239-.046-1.858Zm25.776 3.235c-.045.872-.091 1.652-.276 2.41-.46 1.973-1.706 3.166-3.712 3.556-.738.138-1.475.206-2.213.23-.185 0-.23-.046-.23-.23v-2.708c0-.16.045-.229.23-.252.323-.023.645-.046.968-.092 1.245-.252 1.775-.872 1.868-2.157.046-.573.069-1.124.046-1.697v-7.16c0-.206.046-.275.276-.275h2.813c.23 0 .3.046.3.276-.023 1.353.023 2.707-.023 4.038-.023 1.216.669 1.835 1.89 1.858 1.845.046 3.69.023 5.534 0 2.583 0 5.142-.022 7.724-.022.23 0 .3-.046.3-.299V6.585c0-.23.046-.298.276-.298.969.023 1.914 0 2.882 0 .185 0 .254.023.254.23v9.843c0 .275-.161.23-.323.23h-16.37c-.207 0-.415 0-.622-.023-.623-.023-1.153-.207-1.591-.712Zm19.576 5.163c0 1.01-.83 1.836-1.822 1.858a1.87 1.87 0 0 1-1.867-1.858 1.845 1.845 0 0 1 3.689 0ZM62.92 24.139a1.81 1.81 0 0 1-1.844 1.812 1.846 1.846 0 0 1-1.844-1.835c0-1.01.853-1.859 1.867-1.836a1.86 1.86 0 0 1 1.822 1.858Zm2.399 1.835a1.846 1.846 0 0 1-1.845-1.835c0-1.01.853-1.86 1.868-1.86 1.014 0 1.844.85 1.844 1.86a1.88 1.88 0 0 1-1.867 1.835ZM95.43 21.04c0 1.01-.83 1.837-1.844 1.837-1.015 0-1.868-.85-1.845-1.86a1.861 1.861 0 0 1 1.868-1.812 1.784 1.784 0 0 1 1.821 1.836Zm.623 26.09c-.23 0-.484.023-.715 0-.207 0-.3.069-.392.275-.738 1.767-1.706 3.419-2.974 4.887-.392.46-.876.735-1.476.872-1.245.253-2.513.345-3.78.367-1.8.023-3.62 0-5.42 0h-.276c.092-.137.139-.252.208-.344 4.818-7.411 9.614-14.8 14.41-22.21.046-.07.092-.139.138-.23a.888.888 0 0 0 .023-.643c-.069-.16-.3-.069-.438-.069h-16.9c-.254 0-.323.07-.346.322-.092 1.193-.23 2.363-.346 3.556-.092.987-.184 1.974-.3 2.96-.023.184.024.276.231.253a2.61 2.61 0 0 1 .6 0c.23.023.322-.07.415-.276.668-1.698 1.66-3.212 3.02-4.451.484-.436 1.037-.734 1.683-.826.484-.069.968-.115 1.476-.115h6.156c.069 0 .161-.046.207.046l-.138.206c-4.68 7.205-9.361 14.41-14.019 21.638-.184.298-.368.367-.691.321-1.476-.206-2.513-.963-3.02-2.386-1.153-3.19-2.306-6.379-3.482-9.568-1.383-3.81-2.767-7.595-4.15-11.404-.07-.207-.162-.276-.37-.253-.276.023-.53 0-.806 0-.184 0-.254.07-.323.23-.692 1.904-1.406 3.809-2.098 5.713-1.798 4.865-3.574 9.752-5.418 14.593-.23.643-.508 1.285-.969 1.813-.668.78-1.567 1.125-2.582 1.262-.207.023-.323.046-.3.299.023.32 0 .642 0 .963 2.928 0 5.81 0 8.739-.023 0-.321 0-.642.023-.964.023-.206-.07-.252-.254-.252-.669-.046-1.337-.16-1.96-.39-.092-.046-.207-.069-.3-.115-.714-.32-.922-.711-.783-1.468.23-1.354.691-2.616 1.106-3.9.116-.391.277-.781.415-1.171.046-.138.116-.184.277-.184h7.747c.161 0 .23.07.277.207.6 1.767 1.222 3.533 1.844 5.277a2.6 2.6 0 0 1 .115.46c.047.527-.022.665-.53.871-.645.252-1.337.367-2.052.413-.277.023-.392.092-.346.39.023.276 0 .574 0 .826H95.43c.139-1.239.254-2.5.37-3.74.138-1.285.253-2.593.391-3.878.023-.114-.023-.16-.138-.16Zm-35.53-2.249c1.153-3.166 2.283-6.31 3.458-9.5 1.176 3.213 2.352 6.334 3.505 9.5h-6.963Z"></path></svg>