
<svg xmlns="http://www.w3.org/2000/svg" width="142" height="18" fill="none" viewBox="0 0 142 18"><path fill="#1D1D1B" d="M27.486 8.91c1.134-2.809 1.036-4.992-.288-6.553C25.871.802 23.374.022 19.698.022H7.263L6.14 2.835h8.564c4.37 0 5.633 2.26 4.126 6.003-.869 2.164-1.638 4.15-3.455 5.034-1.665.815-3.383 1.052-6.44 1.052l-3.963-.01 2.96-7.283H4.2L0 18h11.269c3.159 0 5.654-.298 7.49-.909a14.12 14.12 0 0 0 5.418-3.31c1.487-1.46 2.59-3.086 3.31-4.872Zm70.805 1.89 7.572-7.647 1.573 7.647h-9.145Zm-64.387.032 7.375-7.315 1.331 7.315h-8.706ZM105.215 0l.004.018h-4.617L82.859 17.24 89.796.024H82.19L73.002 7.49l-4.73 4.031h-.216l2.227-5.87L67.568.02h-7.643l-6.944 17.256L48.982.022H40.61L22.12 18h4.618l4.728-4.7h11.65l.927 4.7h12.38L60.9 6.888c.223-.557.44-1.2.649-1.92.023.584.172 1.203.45 1.847l3.932 9.27h.668l11.263-9.237c.418-.345 1.055-.97 1.912-1.88-.433.843-.738 1.48-.92 1.92L74.382 18h8.174v-.008h8.618l4.671-4.722h12.099l.975 4.722h4.252L109.026 0h-3.811Zm36.735.024h-12.437c-3.673 0-6.796.778-9.375 2.331-2.58 1.561-4.431 3.746-5.567 6.554-.719 1.786-.924 3.412-.615 4.873.362 1.54 1.277 2.643 2.75 3.31 1.35.61 3.608.908 6.765.908h11.244l1.116-2.853h-6.329c-3.058 0-5.087-.411-6.098-1.225-1.109-.876-.984-2.918-.119-5.084 1.508-3.742 4.665-6.072 9.034-6.072h4.903l-1.124 2.808h3.731L142 .182h-.109l.059-.158Z"></path></svg>