
<svg xmlns="http://www.w3.org/2000/svg" width="111" height="21" fill="none" viewBox="0 0 111 21"><path fill="#3C3D3F" d="m16.104 18.898-.33 2.089H0c.653-1.446.611-2.26.611-3.305V3.32c0-1.012.042-1.9-.611-3.305h15.389l.027 2.129c-.288-.112-.522-.21-.735-.302-.57-.204-1.291-.395-2.04-.388H4.204v8.213h9.9l-.487 1.616H4.204v8.219h8.925c1.504.026 3.002-.788 3.002-.788l-.041.177c0 .007.007.007.014.007Zm23.742 2.089c.214-1.032.214-2.49.042-3.68l-1.402-9.88-7.653 13.553h-1.456L21.6 6.815l-1.512 10.71c-.165 1.235-.213 2.798-.075 3.462h-2.735c.53-1.071.66-1.537.907-3.298L20.658.015h1.258l9.075 16.491L40.06.016h.948l2.555 17.633c.254 1.755.447 2.26.955 3.338h-4.672Zm23.036 0-3.641-7.68h-7.324l-3.593 7.68h-2.858c.907-1.078 1.216-1.577 1.855-2.917L55.813.015h.954l8.355 17.549c.893 1.715 1.312 2.247 2.59 3.423h-4.83Zm22.912 0-3.641-7.68h-7.324l-3.593 7.68h-2.858c.907-1.078 1.216-1.577 1.855-2.917L78.724.015h.955l8.361 17.549c.893 1.715 1.312 2.247 2.59 3.423h-4.836Zm20.761.013c-2.192-1.912-5.029-4.448-8.58-8.469-1.017-1.136-1.732-1.281-2.192-1.307v6.458c0 1.038 0 1.86.618 3.305h-4.823c.653-1.446.612-2.26.612-3.305V3.307c0-1.012.04-1.9-.612-3.305h4.727c3.229 0 10.861-.276 10.861 5.755 0 3.187-2.644 4.902-5.75 5.335l-.92.086S110.567 20.593 111 21h-4.445Zm-5.709-11.11-.007.007c2.034-.736 2.721-2.583 2.652-4.146-.076-1.505-.783-4.777-7.701-4.514v8.942s3.874.204 4.96-.25l.096-.039ZM75.53 11.841h5.915L78.463 5.58l-2.933 6.261Zm-22.905 0h5.915L55.558 5.58l-2.933 6.261Z"></path></svg>