
<svg xmlns="http://www.w3.org/2000/svg" width="89" height="89" fill="none" viewBox="0 0 89 89"><path fill="#044F92" d="M37.84 88.943c-.607-.17-.75-.335-3.691-4.302-1.398-1.887-2.595-3.43-2.657-3.43-.061 0-.117 1.703-.117 3.786v3.784h-2.33V72.696h.768c.66 0 .817.061 1.165.46l.4.46v2.928c0 1.612.055 2.93.122 2.93s1.32-1.404 2.795-3.154c2.69-3.176 3.327-3.748 3.977-3.542.65.206 1.326.602 1.326.762 0 .092-1.28 1.63-2.816 3.42l-2.815 3.253 3.02 4.069c1.664 2.24 3.023 4.135 3.023 4.209 0 .34-1.47.643-2.168.447l-.003.005ZM0 73.01l.376-.168a1.802 1.802 0 0 1 1.958.433c.213.254 1.692 2.616 3.289 5.26a565.583 565.583 0 0 0 3.265 5.361l.361.555.136-11.67.46-.05c.295-.022.59.026.863.14.824.39.801.15.801 8.391v7.535H9.347L5.887 83.2l-3.489-5.579-.072 11.159H0V73.009Zm13.623 15.487c.049-.15 1.28-3.7 2.72-7.883L18.976 73l.545-.17a2.06 2.06 0 0 1 1.791.236c.233.176.983 2.165 2.933 7.774 1.441 4.148 2.621 7.63 2.621 7.736 0 .107-.335.198-1.218.198h-1.229l-.716-2.06-.717-2.034-5.6.087-1.377 4.02h-1.236c-1.12 0-1.228-.025-1.149-.277v-.015Zm8.571-6.17c0-.147-1.904-5.892-1.983-5.98-.038-.046-.921 2.479-1.792 5.134l-.322.984h2.047c1.126 0 2.048-.061 2.048-.138h.002Zm20.29-9.63h.748c.591 0 .827.079 1.131.38l.384.38.136 5.783 6.508.084v-6.627h.768c.66 0 .816.061 1.164.46l.4.46v15.165h-2.33v-7.103l-6.508.084-.074 7.019h-2.327V72.696Zm14.038 15.886c-.035-.107-.048-3.674-.028-7.924l.036-7.725 8.973-.084v.546c0 .733-.233 1.272-.637 1.49-.21.11-1.375.176-3.138.176h-2.815v4.257h4.934v2.365h-4.934v4.89h2.953c3.69 0 3.898.084 3.898 1.59v.618h-4.596c-3.55 0-4.607-.046-4.661-.199h.015Zm11.858-7.769V72.85l8.975.084-.015.696c0 .552-.09.763-.384 1.066-.364.359-.433.366-3.24.366h-2.882v4.257h4.945l-.082 2.286-4.863.087v4.882h6.05l.4.46a1.413 1.413 0 0 1 .401 1.104v.644h-9.318v-7.968h.013Zm11.877 7.863c-.05-.058-.094-3.644-.094-7.97v-7.86l.36-.157c.484-.214 1.232-.03 1.674.407l.364.36.138 13.038 2.838.08c2.69.073 2.856.096 3.138.421.226.29.337.652.312 1.018l.013.681-4.325.04c-2.378.024-4.366 0-4.418-.065v.007Zm-40.045-23.02c-6.455-1.116-11.773-5.508-14.458-11.964a23.307 23.307 0 0 1 .144-18.134 19.55 19.55 0 0 1 8.55-9.381c1.339-.738 4.239-1.887 5.354-2.124.464-.097.369 0-.616.567-2.304 1.343-4.671 4.578-5.815 7.911-1.175 3.426-1.467 7.436-.768 10.358a10.368 10.368 0 0 0 2.457 4.745c.972 1.124 1.39 1.48 2.47 2.093 1.41.801 2.748 1.2 4.04 1.203.843 0 1.854-.24 1.849-.438a3.384 3.384 0 0 0-.804-.638c-1.66-1.093-3.286-3.133-4.236-5.32-1.4-3.211-1.07-6.611.942-9.724.553-.86.855-1.119.566-.488-.364.793-.612 2.812-.535 4.376a11.802 11.802 0 0 0 2.713 7.075c3.237 4.068 7.903 5.185 11.821 2.843 1.262-.763 2.647-2.317 3.19-3.599.368-.872.398-1.086.398-2.68s-.028-1.803-.41-2.683c-1.248-2.87-4.386-4.857-7.677-4.854-2.641 0-5.224 1.246-6.373 3.07-.473.762-.54.612-.645-1.38-.181-3.422.86-6.357 3.138-8.818a10.09 10.09 0 0 1 4.563-2.843c1.247-.346 3.524-.351 4.797 0 2.198.592 4.678 2.446 5.858 4.379.883 1.444.913 1.576.13.585-1.791-2.271-4.924-3.596-7.422-3.149-2.047.367-3.583 1.254-4.995 2.912-.825.961-1.986 2.983-1.825 3.171.361.006.722-.03 1.075-.107 1.876-.307 4.9.077 6.958.883a10.57 10.57 0 0 1 4.423 3.082c1.366 1.556 1.922 2.695 2.27 4.656.87 4.875-2.477 9.384-7.97 10.736a13.39 13.39 0 0 1-6.91-.236l-.97-.292-1.023.592a9.295 9.295 0 0 1-8.323.47c-2.874-1.207-5.094-3.99-6.158-7.723-.379-1.327-.435-1.764-.494-3.814-.09-3.166.187-4.885 1.397-8.717.054-.173-.3.165-.788.75-2.007 2.408-3.107 6.25-3.107 10.846a18.225 18.225 0 0 0 .753 5.607c1.748 5.989 6.771 10.876 12.471 12.133 5.119 1.126 11.238-.283 15.668-3.599 2.063-1.543 4.479-4.185 5.58-6.103.455-.793.532-.809.255-.048-.767 2.11-2.64 5.165-4.404 7.176-1.664 1.9-3.11 3.108-5.045 4.214-3.148 1.803-5.249 2.372-9.042 2.449-1.433.028-2.79.02-3.015-.02l-.002-.006Zm2.877-6.39c-.835-.359-1.792-1.346-2.27-2.373-.105-.213.025-.185.66.153 1.128.6 3.143.691 4.407.2a5.582 5.582 0 0 0 2.457-1.815l.432-.567v.526c0 .712-.596 2.035-1.18 2.632a4.16 4.16 0 0 1-2.999 1.37 4.778 4.778 0 0 1-1.507-.126Zm-19.065-5.923a27.523 27.523 0 0 1-2.441-8.079c-.256-1.925-.256-5.401 0-7.156.929-6.131 4.26-11.876 9.034-15.576 1.659-1.271 2.982-2.034 6.856-3.842 5.267-2.474 7.2-3.687 8.595-5.427 1.261-1.566 1.673-3.051 1.318-4.725a8.866 8.866 0 0 1-.177-.971c.097 0 1.205 2.128 1.536 2.917.33.788.378 1.162.381 2.288.003 1.127-.049 1.452-.363 2.144-.937 2.052-3.059 3.436-9.288 6.052-5.887 2.472-9.014 4.52-11.794 7.718-2.779 3.2-4.243 6.376-5 10.892-.374 2.228-.346 6.46.056 8.626a27.17 27.17 0 0 0 1.536 5.292c.545 1.243.386 1.144-.244-.153h-.005Zm29.547-21.407c0-.368.666-1.96 1.004-2.408.224-.328.531-.592.89-.765a2.3 2.3 0 0 1 1.157-.222c.911 0 1.042.128.471.456-.32.183-.576.554-.921 1.345-.548 1.246-1.06 1.668-2.02 1.668a1.218 1.218 0 0 1-.583-.074h.002Zm-5.42-9.327c.512-2.289 1.707-3.4 3.416-3.126l.702.115-.44.175c-.584.232-.72.407-1.203 1.56-.466 1.103-.868 1.444-1.904 1.619l-.671.112.1-.455Zm-16.434-2.714c.075-.086 1.37-1.164 2.877-2.398 3.448-2.82 5.03-4.275 6.529-5.991 2.675-3.052 3.552-5.82 2.577-8.066l-.297-.682.707.788A7.7 7.7 0 0 1 45.3 5.47c.47 1.096.486 1.185.427 2.523-.048 1.116-.138 1.566-.448 2.288-.875 2.035-2.723 3.728-5.886 5.407-.98.508-3.138 1.711-4.796 2.652-1.659.94-2.954 1.643-2.88 1.556Zm5.137-7.413c2.303-3.102 3.21-4.996 3.552-7.448a8.063 8.063 0 0 0-.537-4.05L39.472 0l.412.254a5.35 5.35 0 0 1 1.858 2.162c1.244 2.825-.327 6.406-4.338 9.887L36.24 13.32l.614-.837Z"></path></svg>