<svg
                      xmlns="http://www.w3.org/2000/svg"
                      width="79"
                      height="68"
                      fill="none"
                    >
                      <g clip-path="url(#Frame 42__a)" fill="white">
                        <path
                          d="M17.818 52.616c-1.996 0-3.681-1.726-3.681-3.77s1.617-3.77 3.681-3.77c2.065 0 3.682 1.726 3.682 3.77s-1.755 3.77-3.682 3.77Zm0-6.246c-1.341 0-2.392 1.088-2.392 2.476 0 1.196.962 2.476 2.392 2.476 1.208 0 2.393-1.227 2.393-2.476 0-1.48-1.237-2.476-2.393-2.476Z"
                        ></path>
                        <rect
                          x="16.999"
                          y="67"
                          width="46"
                          height="1.5"
                          rx=".75"
                        ></rect>
                        <path
                          d="M63.344 52.616c-1.997 0-3.682-1.726-3.682-3.77s1.617-3.77 3.682-3.77 3.681 1.726 3.681 3.77-1.755 3.77-3.681 3.77Zm0-6.246c-1.342 0-2.393 1.088-2.393 2.476 0 1.196.962 2.476 2.393 2.476 1.207 0 2.392-1.227 2.392-2.476 0-1.48-1.237-2.476-2.392-2.476Z"
                        ></path>
                        <path
                          d="M40.477 62a13.08 13.08 0 0 1-9.48-4.099c-2.306-2.455-3.478-5.585-3.3-8.814.07-1.252.516-2.923 1.327-4.964l.405-1.019-23.863-2.959a.651.651 0 0 1 .163-1.292l24.276 3.018.262-.55c.938-1.966 2.159-4.233 3.734-6.93.83-1.424 1.678-2.79 2.398-3.937l.815-1.299h-5.832a.646.646 0 0 1 0-1.294h6.679l.25-.382c.516-.789.947-1.424 1.23-1.844l.308-.453v-7.535a.646.646 0 1 1 1.289 0v7.537l.146.215c.318.47.82 1.23 1.377 2.081l.329.504.54-.136h6.074a.646.646 0 0 1 0 1.294h-5.858l.81 1.297c1.75 2.8 4.225 6.96 6.087 10.869l.262.55 24.363-3.018a.652.652 0 0 1 .727.566c.046.364-.215.675-.621.742L51.446 43.12l.412 1.024c.819 2.034 1.29 3.677 1.398 4.89v.037c.225 3.16-.9 6.244-3.168 8.685-2.49 2.697-5.994 4.244-9.61 4.244h-.001Zm-.673-34.452c-2.457 3.707-10.491 16.218-10.784 21.566-.146 2.882.903 5.672 2.952 7.86 2.233 2.354 5.349 3.702 8.55 3.702 3.2 0 6.408-1.394 8.67-3.825 2.026-2.18 3.026-4.924 2.815-7.725-.195-2.206-1.61-5.768-4.212-10.6-2.519-4.68-5.444-9.235-6.584-10.975l-.701-1.07-.708 1.067h.002Z"
                        ></path>
                      </g>
                      <defs>
                        <clipPath id="Frame 42__a">
                          <path fill="#fff" d="M0 0h79v68H0z"></path>
                        </clipPath>
                      </defs>
                    </svg>