<svg
                      xmlns="http://www.w3.org/2000/svg"
                      width="79"
                      height="68"
                      fill="none"
                    >
                      <g clip-path="url(#Frame__a)">
                        <path
                          d="M42.123 68c-.32-.172-.5-.435-.499-1.08.016-6.005.015-12.11.013-18.014v-5.254c0-.038 0-.076-.003-.114 0-.026-.004-.053-.001-.08.053-.391-.085-.643-.209-.786-.182-.207-.438-.312-.766-.312l-.206.004c-.316.006-.642.014-.96.014-.317 0-.592-.008-.845-.022a2.721 2.721 0 0 0-.138-.004c-.132 0-.53 0-.836.306-.318.319-.317.76-.317.948.006 3.365.008 6.73.008 10.096 0 4.332.002 8.812.015 13.22.001.64-.181.903-.502 1.079H22.28c-.552-.313-.569-.433-.434-1.182.046-.252.09-.505.133-.758.058-.333.115-.668.178-1 1.287-6.87 2.66-14.187 4.033-21.481.03-.152.105-.554-.172-.889-.277-.334-.685-.334-.82-.334h-.034a130.799 130.799 0 0 1-3.81.002h-.032c-.142 0-.518 0-.804.29-.26.263-.285.593-.28.82.017 1.136.012 2.295.008 3.417v.398c-.004.46-.28.756-.708.756-.425-.004-.694-.3-.697-.751-.003-.783-.002-1.567-.002-2.349v-1.005c0-.627 0-1.574-1.204-1.574a6.54 6.54 0 0 0-.405.017 3.993 3.993 0 0 1-.212.006c-.605 0-.852-.18-1.016-.5v-.44c.168-.317.42-.497 1.037-.497h.036c1.368.016 2.722.017 3.866.017h2.648c.7-.001 1.399 0 2.098.003.644 0 1.056-.338 1.168-.952.632-3.423 1.268-6.846 1.905-10.268l.487-2.62c.338-1.817.687-3.697 1.038-5.542.07-.37.325-.582.698-.583a732.644 732.644 0 0 1 5.716.003c.22 0 .448.058.632.46.035.08.035.222.035.388v3.939c0 4.586 0 9.328-.009 13.993 0 .177 0 .591.301.894.195.194.46.293.79.293.037 0 .077 0 .12-.004a15.431 15.431 0 0 1 1.807 0c.05.003.099.005.143.005.129 0 .52 0 .819-.3.277-.278.311-.64.311-.924-.014-4.94-.013-9.962-.011-14.82v-3.052c0-.645.232-.874.886-.874h5.39c.496 0 .725.187.815.665.196 1.038.388 2.076.58 3.114l.386 2.073.599 3.206c.604 3.229 1.229 6.569 1.834 9.854.13.702.553 1.057 1.258 1.057h.015c1.425-.009 2.936-.013 4.754-.013 1.378 0 2.754.003 4.132.005a.71.71 0 0 1 .521.201.697.697 0 0 1 .194.508c-.003.401-.294.686-.708.693-.069 0-.137.003-.205.005a11.23 11.23 0 0 1-.358.007 3.56 3.56 0 0 1-.35-.014 1.878 1.878 0 0 0-.18-.01c-.314 0-.57.1-.758.292-.27.275-.293.63-.288.873.021.957.016 1.934.012 2.88l-.002.838c0 .504-.266.805-.706.805-.515-.005-.696-.413-.697-.795v-.468c-.004-1.1-.007-2.237.005-3.353 0-.137.005-.501-.275-.784-.278-.28-.643-.28-.763-.28h-.022c-.679.007-1.34.01-1.966.01-.626 0-1.287-.003-1.895-.012h-.033c-.136 0-.55 0-.828.335-.278.336-.197.748-.172.883a407.2 407.2 0 0 1 .629 3.34l.222 1.193.915 4.903c.86 4.603 1.72 9.204 2.578 13.807.14.745.122.864-.433 1.178h-14.6Zm2.04-25.644c-.147 0-.543 0-.836.295-.296.295-.295.691-.295.86.012 7.266.012 14.647 0 21.939 0 .17 0 .565.295.86.294.295.695.295.846.295 2.051-.009 4.098-.01 5.654-.01h5.832l-.247-1.37c-.069-.38-.134-.749-.204-1.117l-2.442-13.081c-.47-2.51-.954-5.107-1.423-7.662-.122-.669-.522-1.009-1.186-1.009h-.025a290.994 290.994 0 0 1-5.943.001h-.026Zm-15.404.003c-.339 0-.929.118-1.074.914a727.67 727.67 0 0 1-.771 4.141l-.327 1.737-1.714 9.173-1.504 8.06.66.16.025.005c.05.014.144.042.264.042h2.564c2.646.002 5.382.003 8.072.013.312 0 .559-.092.74-.273.266-.267.265-.593.265-.768v-.016c-.003-6.66-.004-14.411.004-22.128 0-.131 0-.481-.258-.757-.28-.3-.661-.3-.788-.3a505.405 505.405 0 0 1-6.15 0h-.012l.004-.003Zm3.39-1.402c.967 0 1.848.004 2.691.012h.027c.131 0 .523 0 .813-.292.29-.292.29-.681.288-.847-.01-2.083-.009-4.202-.009-6.25v-3.414c0-2.215 0-4.43-.003-6.645l.004-.027c.015-.15.05-.498-.216-.794-.124-.138-.354-.301-.745-.301h-.039c-.335.009-.701.012-1.12.012-.418 0-.799-.003-1.198-.007l-.225-.003c-.545 0-.923.323-1.01.864-.051.322-.116.656-.177.977-.032.162-.064.325-.094.487l-.575 3.1c-.725 3.9-1.474 7.936-2.223 11.901-.033.172-.108.576.167.91.27.327.668.327.836.327h.025c1.06-.006 1.944-.01 2.781-.01h.003ZM44.06 22.4c-.116 0-.47 0-.746.277-.28.28-.28.645-.278.782.008 5.52.008 11.054 0 16.452 0 .137 0 .5.278.779.278.278.646.278.766.278h.014c1.091-.006 2.196-.008 3.132-.008h2.585c.104 0 .19-.015.248-.025l.03-.005.568-.077.05-.57c.007-.052.023-.163 0-.3l-.723-3.867c-.785-4.21-1.598-8.564-2.39-12.847-.06-.323-.279-.862-1.069-.862h-.208c-.374.003-.747.007-1.122.007-.408 0-.764-.004-1.09-.011h-.044V22.4Z"
                          fill="white"
                        ></path>
                      </g>
                      <defs>
                        <clipPath id="Frame__a">
                          <path fill="#fff" d="M0 0h79v68H0z"></path>
                        </clipPath>
                      </defs>
                    </svg>