<svg
                      xmlns="http://www.w3.org/2000/svg"
                      width="79"
                      height="68"
                      fill="none"
                    >
                      <g clip-path="url(#Frame 41__a)">
                        <mask
                          id="Frame 41__b"
                          maskUnits="userSpaceOnUse"
                          x="24"
                          y="-1"
                          width="32"
                          height="70"
                          fill="white"
                        >
                          <path fill="#fff" d="M24-1h32v70H24z"></path>
                          <path
                            fill-rule="evenodd"
                            clip-rule="evenodd"
                            d="M38.739.342c-.324.325-.357.477-.357 1.61 0 1.013-.042 1.25-.219 1.25-.12 0-.35.13-.51.292-.272.274-.29.487-.29 3.407v3.114l-.471.14c-.834.248-.835.26-.837 7.418l-.002 6.545H34.91c-.922 0-1.189.052-1.383.268-.216.24-.241.88-.241 6.143v5.876H32.05c-1.965 0-1.82-.495-1.82 6.217v5.631h-1.17c-1.05 0-1.208.038-1.528.36l-.358.358v16.835h-.734c-1.246 0-1.836.93-1.148 1.809l.302.385h28.75l.316-.338c.782-.836.145-1.856-1.158-1.856h-.709v-5.412c0-6.435.128-5.997-1.742-5.997h-1.16l-.04-5.791-.042-5.79-.343-.28a1.42 1.42 0 0 0-.765-.28h-.42v-11.13l-.357-.359c-.307-.308-.493-.36-1.31-.36h-.953v-5.913c0-5.18-.028-5.942-.229-6.143-.172-.173-.534-.23-1.456-.23H42.75v-7.327l-.358-.359c-.196-.197-.491-.359-.655-.359-.29 0-.297-.074-.297-3.145 0-2.95-.019-3.163-.292-3.437-.16-.161-.389-.293-.51-.293-.177 0-.218-.242-.218-1.306 0-1.236-.02-1.322-.383-1.609-.504-.398-.86-.382-1.297.056Zm.922 1.664c.04 1.12.024 1.195-.255 1.195-.273 0-.297-.09-.297-1.146 0-.63.045-1.19.1-1.246.272-.273.413.102.452 1.197Zm1.016 5.035.04 3.035H38.09V7.102c0-1.636.047-3.02.103-3.077.056-.057.63-.084 1.274-.061l1.17.042.04 3.035Zm1.198 7.418v3.651l-1.346.042-1.347.042-.04 2.962-.039 2.962h-2.177V10.807h4.949v3.652Zm3.057 10.171v5.778h-1.278c-.92 0-1.368.064-1.6.228l-.324.227v34.942h-1.893V18.853h5.095v5.778Zm-5.823 20.698v20.478H36.78V51.373c0-13.225-.02-14.455-.24-14.7-.195-.216-.462-.268-1.383-.268h-1.142V24.85h5.094v20.478Zm8.408-8.594.039 5.522h-1.828c-1.747 0-1.844.016-2.185.36l-.358.358v22.832h-.728V48.57c0-9.48.043-17.278.095-17.33.052-.053 1.182-.08 2.511-.062l2.416.034.038 5.522ZM36.053 51.471v14.335h-2.177l-.04-8.497-.04-8.497-.343-.28c-.27-.218-.578-.279-1.42-.279h-1.075V37.136h5.095v14.335Zm12.92-2.742.038 5.668h-1.093c-1.792 0-1.676-.416-1.676 5.997v5.412H44.06V54.494c0-6.221.047-11.359.104-11.416.057-.058 1.155-.086 2.438-.061l2.334.043.038 5.669Zm-15.977 8.673v8.404H27.9v-8.18c0-4.498.039-8.28.087-8.405.073-.192.459-.226 2.547-.225l2.46.002v8.404Zm19.034 3.102.038 5.302H46.97V55.12l2.512.04 2.51.04.039 5.303Zm2.145 6.399c0 .29-.11.293-14.111.33-7.762.02-14.167-.018-14.234-.086-.067-.067-.08-.232-.029-.367.087-.226 1.132-.241 14.234-.207 14.03.037 14.14.04 14.14.33Z"
                          ></path>
                        </mask>
                        <path
                          fill-rule="evenodd"
                          clip-rule="evenodd"
                          d="M38.739.342c-.324.325-.357.477-.357 1.61 0 1.013-.042 1.25-.219 1.25-.12 0-.35.13-.51.292-.272.274-.29.487-.29 3.407v3.114l-.471.14c-.834.248-.835.26-.837 7.418l-.002 6.545H34.91c-.922 0-1.189.052-1.383.268-.216.24-.241.88-.241 6.143v5.876H32.05c-1.965 0-1.82-.495-1.82 6.217v5.631h-1.17c-1.05 0-1.208.038-1.528.36l-.358.358v16.835h-.734c-1.246 0-1.836.93-1.148 1.809l.302.385h28.75l.316-.338c.782-.836.145-1.856-1.158-1.856h-.709v-5.412c0-6.435.128-5.997-1.742-5.997h-1.16l-.04-5.791-.042-5.79-.343-.28a1.42 1.42 0 0 0-.765-.28h-.42v-11.13l-.357-.359c-.307-.308-.493-.36-1.31-.36h-.953v-5.913c0-5.18-.028-5.942-.229-6.143-.172-.173-.534-.23-1.456-.23H42.75v-7.327l-.358-.359c-.196-.197-.491-.359-.655-.359-.29 0-.297-.074-.297-3.145 0-2.95-.019-3.163-.292-3.437-.16-.161-.389-.293-.51-.293-.177 0-.218-.242-.218-1.306 0-1.236-.02-1.322-.383-1.609-.504-.398-.86-.382-1.297.056Zm.922 1.664c.04 1.12.024 1.195-.255 1.195-.273 0-.297-.09-.297-1.146 0-.63.045-1.19.1-1.246.272-.273.413.102.452 1.197Zm1.016 5.035.04 3.035H38.09V7.102c0-1.636.047-3.02.103-3.077.056-.057.63-.084 1.274-.061l1.17.042.04 3.035Zm1.198 7.418v3.651l-1.346.042-1.347.042-.04 2.962-.039 2.962h-2.177V10.807h4.949v3.652Zm3.057 10.171v5.778h-1.278c-.92 0-1.368.064-1.6.228l-.324.227v34.942h-1.893V18.853h5.095v5.778Zm-5.823 20.698v20.478H36.78V51.373c0-13.225-.02-14.455-.24-14.7-.195-.216-.462-.268-1.383-.268h-1.142V24.85h5.094v20.478Zm8.408-8.594.039 5.522h-1.828c-1.747 0-1.844.016-2.185.36l-.358.358v22.832h-.728V48.57c0-9.48.043-17.278.095-17.33.052-.053 1.182-.08 2.511-.062l2.416.034.038 5.522ZM36.053 51.471v14.335h-2.177l-.04-8.497-.04-8.497-.343-.28c-.27-.218-.578-.279-1.42-.279h-1.075V37.136h5.095v14.335Zm12.92-2.742.038 5.668h-1.093c-1.792 0-1.676-.416-1.676 5.997v5.412H44.06V54.494c0-6.221.047-11.359.104-11.416.057-.058 1.155-.086 2.438-.061l2.334.043.038 5.669Zm-15.977 8.673v8.404H27.9v-8.18c0-4.498.039-8.28.087-8.405.073-.192.459-.226 2.547-.225l2.46.002v8.404Zm19.034 3.102.038 5.302H46.97V55.12l2.512.04 2.51.04.039 5.303Zm2.145 6.399c0 .29-.11.293-14.111.33-7.762.02-14.167-.018-14.234-.086-.067-.067-.08-.232-.029-.367.087-.226 1.132-.241 14.234-.207 14.03.037 14.14.04 14.14.33Z"
                          fill="white"
                        ></path>
                        <path
                          clip-rule="evenodd"
                          d="M38.739.342c-.324.325-.357.477-.357 1.61 0 1.013-.042 1.25-.219 1.25-.12 0-.35.13-.51.292-.272.274-.29.487-.29 3.407v3.114l-.471.14c-.834.248-.835.26-.837 7.418l-.002 6.545H34.91c-.922 0-1.189.052-1.383.268-.216.24-.241.88-.241 6.143v5.876H32.05c-1.965 0-1.82-.495-1.82 6.217v5.631h-1.17c-1.05 0-1.208.038-1.528.36l-.358.358v16.835h-.734c-1.246 0-1.836.93-1.148 1.809l.302.385h28.75l.316-.338c.782-.836.145-1.856-1.158-1.856h-.709v-5.412c0-6.435.128-5.997-1.742-5.997h-1.16l-.04-5.791-.042-5.79-.343-.28a1.42 1.42 0 0 0-.765-.28h-.42v-11.13l-.357-.359c-.307-.308-.493-.36-1.31-.36h-.953v-5.913c0-5.18-.028-5.942-.229-6.143-.172-.173-.534-.23-1.456-.23H42.75v-7.327l-.358-.359c-.196-.197-.491-.359-.655-.359-.29 0-.297-.074-.297-3.145 0-2.95-.019-3.163-.292-3.437-.16-.161-.389-.293-.51-.293-.177 0-.218-.242-.218-1.306 0-1.236-.02-1.322-.383-1.609-.504-.398-.86-.382-1.297.056Zm.922 1.664c.04 1.12.024 1.195-.255 1.195-.273 0-.297-.09-.297-1.146 0-.63.045-1.19.1-1.246.272-.273.413.102.452 1.197Zm1.016 5.035.04 3.035H38.09V7.102c0-1.636.047-3.02.103-3.077.056-.057.63-.084 1.274-.061l1.17.042.04 3.035Zm1.198 7.418v3.651l-1.346.042-1.347.042-.04 2.962-.039 2.962h-2.177V10.807h4.949v3.652Zm3.057 10.171v5.778h-1.278c-.92 0-1.368.064-1.6.228l-.324.227v34.942h-1.893V18.853h5.095v5.778Zm-5.823 20.698v20.478H36.78V51.373c0-13.225-.02-14.455-.24-14.7-.195-.216-.462-.268-1.383-.268h-1.142V24.85h5.094v20.478Zm8.408-8.594.039 5.522h-1.828c-1.747 0-1.844.016-2.185.36l-.358.358v22.832h-.728V48.57c0-9.48.043-17.278.095-17.33.052-.053 1.182-.08 2.511-.062l2.416.034.038 5.522ZM36.053 51.471v14.335h-2.177l-.04-8.497-.04-8.497-.343-.28c-.27-.218-.578-.279-1.42-.279h-1.075V37.136h5.095v14.335Zm12.92-2.742.038 5.668h-1.093c-1.792 0-1.676-.416-1.676 5.997v5.412H44.06V54.494c0-6.221.047-11.359.104-11.416.057-.058 1.155-.086 2.438-.061l2.334.043.038 5.669Zm-15.977 8.673v8.404H27.9v-8.18c0-4.498.039-8.28.087-8.405.073-.192.459-.226 2.547-.225l2.46.002v8.404Zm19.034 3.102.038 5.302H46.97V55.12l2.512.04 2.51.04.039 5.303Zm2.145 6.399c0 .29-.11.293-14.111.33-7.762.02-14.167-.018-14.234-.086-.067-.067-.08-.232-.029-.367.087-.226 1.132-.241 14.234-.207 14.03.037 14.14.04 14.14.33Z"
                          stroke="#fff"
                          stroke-width=".4"
                          mask="url(#Frame 41__b)"
                        ></path>
                      </g>
                      <defs>
                        <clipPath id="Frame 41__a">
                          <path fill="#fff" d="M0 0h79v68H0z"></path>
                        </clipPath>
                      </defs>
                    </svg>