<svg
                      xmlns="http://www.w3.org/2000/svg"
                      width="79"
                      height="68"
                      fill="none"
                    >
                      <path
                        fill-rule="evenodd"
                        clip-rule="evenodd"
                        d="M72.984 21.916c.164.348.221.825.122 1.326-.098.5-.325.924-.605 1.186a1.465 1.465 0 0 0 .483-2.512Zm-1.381-1.041a2.17 2.17 0 0 1 2.385 1.946c.122 1.195-.741 2.275-1.933 2.396a2.168 2.168 0 0 1-2.384-1.941 2.183 2.183 0 0 1 1.932-2.401Zm-7.841-5.155c-.088-.241-.097-.56-.006-.891.094-.327.27-.593.473-.752a.98.98 0 0 0-.467 1.644Zm.859.773c-.8.016-1.46-.626-1.471-1.433a1.441 1.441 0 0 1 1.418-1.478 1.45 1.45 0 0 1 1.475 1.427 1.455 1.455 0 0 1-1.422 1.484ZM53.909 11.2c.252-.053.569-.02.877.122.309.139.546.352.673.576a.97.97 0 0 0-1.55-.698Zm-.876.748a1.448 1.448 0 0 1 1.613-1.268c.79.1 1.355.827 1.258 1.621a1.45 1.45 0 0 1-1.613 1.27 1.453 1.453 0 0 1-1.258-1.623ZM43.2 14.155c.007-.19.103-.412.266-.607.163-.199.366-.328.55-.37a.726.726 0 0 0-.695.248.734.734 0 0 0-.121.729Zm.356.795a1.093 1.093 0 0 1-.575-1.432 1.078 1.078 0 0 1 1.423-.577c.548.237.81.876.571 1.43a1.077 1.077 0 0 1-1.419.579Zm16.222 2.745c-.182.183-.464.325-.801.378-.33.052-.652.009-.876-.115a.97.97 0 0 0 .915.366.982.982 0 0 0 .762-.63Zm.328-1.11c.354.72.055 1.593-.663 1.946a1.446 1.446 0 0 1-1.935-.671 1.456 1.456 0 0 1 .667-1.947 1.436 1.436 0 0 1 1.931.671ZM50.042 55.958a13.235 13.235 0 0 1-1.576 1.915c-2.954 2.637-6.843 2.068-12.642 1.457-5.41-.571-7.292 3.017-4.093 6.67-2.437-1.09-4.359-5.49.088-8.102 4.695-2.754 9.85-.467 14.415-3.132 3.698-2.16 4.635-8.04 2.938-12.063 3.327 3.987 2.786 10.053.87 13.255Z"
                        fill="white"
                      ></path>
                      <path
                        fill-rule="evenodd"
                        clip-rule="evenodd"
                        d="M47.234 59.448c-.497.348-1.035.684-1.618.998-4.409 2.486-12.373-1.078-12.99 2.668-.37 2.23 3.473 1.889 2.473-.668 1.456.454.851 4.409-2.325 3.386-2-.641-2.756-6.295 3.224-5.807 3.613.303 7.915 1.137 11.236-.577Zm-19.264.728c-12.643-6.641-10.663-16.638-9.607-20.415 1.398-5.006 1.079-5.394 1.07-7.25.875 2.066.815 3.179.617 9.02-.173 11.809 10.76 14.679 12.716 14.843-.829.228-1.647.554-2.455 1.03-1.238.727-1.983 1.721-2.341 2.772Z"
                        fill="white"
                      ></path>
                      <path
                        fill-rule="evenodd"
                        clip-rule="evenodd"
                        d="M27.702 63.088c-11.223-6.015-11.15-16.87-10.715-18.201-.275 9.844 8.154 14.985 10.647 16.288a4.847 4.847 0 0 0 .068 1.913Zm11.484-26.256s-3.787.86-5.697 3.934c1.247-4.814 7.487-7.05 12.44-4.805-1.558-1.526-5.964-1.647-7.515-1 .424-1.047 7.241-2.409 11.616 2.613 1.81 2.075 4.447 8.462 2.002 14.826-.154.41-.323.813-.508 1.223 3.285-8.306-1.827-19.36-10.81-17.254l-1.528.463Z"
                        fill="white"
                      ></path>
                      <path
                        fill-rule="evenodd"
                        clip-rule="evenodd"
                        d="M51.574 42.933c-3.532-4.026-6.614-5.205-8.825-3.902a3.49 3.49 0 0 0-.397.27c-.69.523-1.281 1.317-1.755 2.356-.176-2.903 2.293-3.591 2.689-3.818.208-.12-4.273.35-3.999 5.541-.036.115-1.541-2.963.48-4.783-.242 0-2.335 1.549-2.66 4.068-.29 2.29.454 3.678.454 3.678s-1.244-2.332-1.175-4.29c.087-2.77 2.287-4.198 2.287-4.198 5.952-2.82 10.857.961 12.901 5.078Zm-35.42 10.852a4.79 4.79 0 0 1 .934-2.346 20.95 20.95 0 0 0 5.55 7.949c-.483.068-.98.08-1.49.026-3.05-.317-5.286-2.838-4.994-5.629Zm45.698-48.94c-.068.399.897 2.148 1.297 2.35-2.512 4.522-9.2 1.176-11.34 3.291-.625.62-.76 2.771-2.183 3.07-1.77.37-6.91-3.526-8.151-.798-.59.143-.751.176-.751.176 1.091-3.97 6.526-.803 7.912-1.293 1.374-.484 1.445-2.32 2.074-2.943 2.137-2.116 9.23.864 11.142-3.853Z"
                        fill="white"
                      ></path>
                      <path
                        fill-rule="evenodd"
                        clip-rule="evenodd"
                        d="M50.128 8.479c.111.122-.017-1.581 5.793-1.366 2.542.109 4.44-.536 5.781-2.362-.328-.503-.468-.634-.468-.634s-1.457 1.798-3.58 2.13c-2.13.337-6.21-.233-7.526 2.232Zm12.357 26.516s-2.337-13.083-9.904-15.155c-5.213-1.423-5.347-4.803-5.347-4.803s.904 2.535 6.14 3.851c9.568 2.402 12.669 16.534 12.669 16.534l-3.558-.427Z"
                        fill="white"
                      ></path>
                      <path
                        fill-rule="evenodd"
                        clip-rule="evenodd"
                        d="M67.296 35.35s-2.003-9.749-7.764-14.488c2.467 1.723 7.168 5.752 8.681 14.56-.365-.018-.917-.072-.917-.072Zm-53.204-5.752s.468-3.417 6.202-5.846c5.174-2.199 2.563-6.25 1.08-6.53.69.601 1.18 1.618.945 2.603-.79 3.313-7.942 2.873-9.085 7.584l.858 2.19Zm-4.274 9.986c-.449 1.26-.388 3.167 2.806 6.14 3.194 2.974 2.09 7.171 2.09 7.171s1.914-3.931-.631-7.432c-2.543-3.503-2.248-5.244-1.553-6.4l-2.712.521Z"
                        fill="white"
                      ></path>
                      <path
                        fill-rule="evenodd"
                        clip-rule="evenodd"
                        d="M9.535 39.79c-.43 1.183-.438 2.851 2.252 5.766l-.03.059c-2.666-2.83-3.266-3.745-2.631-5.644l.409-.18Zm4.422-15.792c2.587-2.067 6.729-2.04 7.447-4.432.277-.932.055-1.723-.58-2.344.666.586 1.27 1.565 1.041 2.509-.592 2.43-4.977 2.682-7.43 4.77l-.478-.503Z"
                        fill="white"
                      ></path>
                      <path
                        fill-rule="evenodd"
                        clip-rule="evenodd"
                        d="M11.787 15.118c6.559 1.061 6.853-3.264 13.441-4.08 3.129-.391 6.736 1.067 14.026-1.825-4.567 3.71-9.538 2.093-8.184 5.426 1.101 2.712 7.935-1.464 16.164 3.276-14.012-3.836-18.119 6.024-25.411 6.587 2.61-1.342 5.069-3.88 3.616-6.667-1.962-3.77-8.805-.146-13.652-2.717Zm10.288-7.983c.292-.132.691-.17 1.105-.083.413.086.759.286.97.528a1.207 1.207 0 0 0-.905-.835 1.205 1.205 0 0 0-1.17.39Zm-.876 1.144a1.81 1.81 0 0 1 1.639-1.972A1.818 1.818 0 0 1 24.8 7.964a1.818 1.818 0 0 1-1.646 1.97A1.81 1.81 0 0 1 21.2 8.28Z"
                        fill="white"
                      ></path>
                      <path
                        fill-rule="evenodd"
                        clip-rule="evenodd"
                        d="M11.79 15.338c6.543.276 6.03-3.649 12.366-5.244 2.888-.729 10.04-.017 14.095-1.609.128.013.167.561.302.677-6.286 2.926-10.457 1.353-13.693 1.918-6.44 1.119-8.21 5.554-13.07 4.534-.005-.297-.002-.107 0-.276ZM6.724 38.002c.08.027 4.33-2.256 4.79-5.197.455-2.932-1.053-5.683-.866-6.847 1.273 1.608 2.292 4.057 2.81 5.883.386 1.34 1.576 1.063 2.952-.076 1.459-1.203 3.177-3.329 6.229-3.911-6.124 4.548-6.279 10.407-7.218 17.761-1.483-3.474 1.193-9.827-3.398-9.108-2.243.355-3.262 1.552-5.3 1.495Z"
                        fill="white"
                      ></path>
                      <path
                        fill-rule="evenodd"
                        clip-rule="evenodd"
                        d="M9.285 31.898c.289-.153.695-.212 1.123-.15.433.07.796.258 1.025.494a1.245 1.245 0 0 0-.974-.812 1.252 1.252 0 0 0-1.174.468Zm.183 1.774a1.463 1.463 0 0 1-.285-2.036 1.44 1.44 0 0 1 2.024-.29 1.46 1.46 0 0 1 .29 2.038 1.44 1.44 0 0 1-2.029.288Z"
                        fill="white"
                      ></path>
                      <mask
                        id="Frame 40__a"
                        style="mask-type: alpha"
                        maskUnits="userSpaceOnUse"
                        x="6"
                        y="36"
                        width="10"
                        height="9"
                      >
                        <path
                          d="M6 36.218h9.28v8.577H6v-8.577Z"
                          fill="#fff"
                        ></path>
                      </mask>
                      <g mask="url(#Frame 40__a)">
                        <path
                          fill-rule="evenodd"
                          clip-rule="evenodd"
                          d="M6 37.92c.026.006.475-.233 1.002-.552 1.439.181 2.735-.43 4.928-1.046 3.594-1.017 2.313 5.698 3.35 8.473-1.734-3.505-.3-8.095-3.637-7.528C9.47 37.635 8.19 38.36 6 37.92Z"
                          fill="white"
                        ></path>
                      </g>
                      <path
                        fill-rule="evenodd"
                        clip-rule="evenodd"
                        d="m42.17 6.3.486-1.455 1.684.183-1.073 1.124-1.097.149Zm4.34 2.185.277-1.456 1.17.17-.35.915-1.096.371Zm2.17 10.193.161.677.481.05.082-.558-.723-.17Zm10.852-7.119.64-.89.807.87-.609.586-.838-.566Zm-8.623 9.303.665.722-.142.734-.581-.609.058-.847Zm.665.045 1.557-.045.613.674-1.33.054-.84-.683Z"
                        fill="white"
                      ></path>
                      <mask
                        id="Frame 40__b"
                        style="mask-type: alpha"
                        maskUnits="userSpaceOnUse"
                        x="46"
                        y="2"
                        width="2"
                        height="2"
                      >
                        <path
                          d="M46.688 2h1.056v1.135h-1.056V2Z"
                          fill="#fff"
                        ></path>
                      </mask>
                      <g mask="url(#Frame 40__b)">
                        <path
                          fill-rule="evenodd"
                          clip-rule="evenodd"
                          d="m47.075 3.135-.388-.897.991-.238.067.575-.67.56Z"
                          fill="white"
                        ></path>
                      </g>
                    </svg>