<svg
                      xmlns="http://www.w3.org/2000/svg"
                      width="68"
                      height="68"
                      fill="none"
                    >
                      <path
                        fill-rule="evenodd"
                        clip-rule="evenodd"
                        d="M47.767 22.213c-.248.182-.262.42-.299 5.044l-.038 4.853-15.444.045c-15.204.044-15.464.049-16.688.331-3.766.87-6.524 2.37-9.087 4.944-2.638 2.65-4.229 5.674-4.97 9.45-.347 1.766-.315 4.935.067 6.746 1.529 7.24 6.997 12.634 14.326 14.134 1.091.223 2.37.24 17.865.24 15.589 0 16.768-.016 17.895-.244 7.266-1.472 12.766-6.908 14.296-14.13.413-1.95.413-5.114 0-7.064-1.173-5.54-4.633-10.046-9.632-12.547-1.96-.98-3.527-1.412-6.708-1.848l-.436-.06v-3.622h3.264c2.991 0 3.282-.02 3.485-.246.122-.136.222-.319.222-.407 0-.088-.272-.704-.605-1.37l-.604-1.208.604-1.21c.333-.664.605-1.297.605-1.405 0-.109-.134-.292-.298-.407-.423-.298-7.417-.314-7.82-.019ZM47.44 34.47v1.003l-15.181.049c-14.777.048-15.213.056-16.388.327-2.979.688-5.096 1.862-7.238 4.013-1.626 1.633-2.55 3.026-3.3 4.971-1.222 3.172-1.265 7.043-.113 10.213 1.87 5.144 6.656 8.915 12.025 9.473l.838.087v1.98h-.616c-1.866 0-5.229-1.1-7.244-2.37C1.605 58.78-.293 47.366 6.117 39.52c2.638-3.228 6.646-5.422 10.795-5.906.533-.063 7.62-.122 15.749-.131l14.779-.018v1.003Zm4.918-.4c1.715.458 3.033 1.03 4.46 1.934 2.376 1.505 3.89 3.026 5.389 5.412 4.03 6.417 3.035 14.94-2.381 20.378-2.72 2.732-6.214 4.386-10.117 4.788-.85.088-6.748.14-15.755.14H19.558v-2.154h15.135c16.386 0 15.932.018 18.188-.738 4.023-1.35 7.41-4.695 8.897-8.784 1.105-3.043 1.105-6.86 0-9.903-1.867-5.135-6.668-8.943-11.934-9.464l-.93-.092V33.52l1.093.106c.6.059 1.659.258 2.35.443Zm-4.918 3.905v1.007l-15.315.037c-17.344.043-15.773-.06-18.332 1.201-1.253.618-1.555.843-2.76 2.053-1.204 1.21-1.43 1.515-2.045 2.773-.979 2.002-1.156 2.775-1.156 5.049 0 2.126.177 3.007.928 4.603 1.584 3.368 4.514 5.654 8.089 6.311l1.234.227v2.016l-.77-.09c-3.3-.39-6.657-2.259-8.709-4.846-.99-1.247-2.034-3.294-2.48-4.855-.269-.945-.306-1.367-.299-3.434.007-2.165.037-2.452.37-3.539 1.474-4.82 5.172-8.255 10.026-9.312.7-.153 3.632-.189 16.038-.198l15.18-.01v1.007Zm4.11-.598c1.418.364 3.27 1.284 4.562 2.266 2.23 1.693 3.829 4.028 4.69 6.845.333 1.087.363 1.374.37 3.54.007 2.075-.029 2.483-.302 3.43-1.124 3.9-3.642 6.894-7.21 8.573-.614.29-1.587.66-2.16.824l-1.044.297-15.45.038-15.448.038v-2.02l15.315-.038 15.315-.04 1.005-.31c3.718-1.147 6.605-4.08 7.672-7.79.249-.867.301-1.38.301-2.935 0-2.263-.18-3.051-1.133-4.998-.723-1.476-1.974-2.98-3.292-3.96-1.398-1.036-3.38-1.835-5.19-2.09l-.637-.09v-2.024l.813.092c.447.051 1.267.21 1.824.352ZM49.332 41.4c3.282.625 8.487 3.432 7.53 9.62-.788 5.087-4.824 7.164-7.374 7.707-1.35.287-30.626.287-31.976 0-2.55-.543-6.51-2.62-7.374-7.708-.914-5.388 4.244-8.983 7.424-9.61.864-.171 30.878-.18 31.77-.01Z"
                        fill="#fff"
                      ></path>
                    </svg>