<svg
                      xmlns="http://www.w3.org/2000/svg"
                      width="79"
                      height="68"
                      fill="none"
                    >
                      <g clip-path="url(#Frame 43__a)">
                        <path
                          d="M16.5 39.5C33.68 68.033 79 68 79 68"
                          stroke="#fff"
                          stroke-linecap="round"
                        ></path>
                        <path
                          d="M2 21.65h6c.746 0 1.35.604 1.35 1.35v12.35H.65V23c0-.746.604-1.35 1.35-1.35Zm-1.35 16h8.7V66A1.35 1.35 0 0 1 8 67.35H2A1.35 1.35 0 0 1 .65 66V37.65Z"
                          stroke="#fff"
                          stroke-width="1.3"
                          stroke-linejoin="round"
                        ></path>
                        <rect
                          x="16"
                          y="39"
                          width="1.5"
                          height="29"
                          rx=".75"
                          fill="white"
                        ></rect>
                        <path
                          d="M39 59.25v8a.25.25 0 1 1-.5 0v-8a.25.25 0 1 1 .5 0Z"
                          fill="white"
                          stroke="#fff"
                        ></path>
                      </g>
                      <defs>
                        <clipPath id="Frame 43__a">
                          <path fill="#fff" d="M0 0h79v68H0z"></path>
                        </clipPath>
                      </defs>
                    </svg>