<svg
                      xmlns="http://www.w3.org/2000/svg"
                      width="79"
                      height="68"
                      fill="none"
                    >
                      <path
                        d="M40.76 48.003c4.299.391 7.688 3.974 7.688 8.372a.697.697 0 1 1-1.395 0c0-3.65-2.798-6.624-6.355-6.98v16.667a.697.697 0 1 1-1.395 0V49.395c-3.557.357-6.355 3.333-6.355 6.981a.697.697 0 1 1-1.395 0c0-4.398 3.388-7.98 7.688-8.372-.32-3.594-3.313-6.43-6.99-6.43a7.06 7.06 0 0 0-7.053 7.052.697.697 0 1 1-1.395 0c0-4.658 3.79-8.447 8.447-8.447 2.95 0 5.541 1.522 7.053 3.82v-3.123c0-6.026-4.902-10.927-10.928-10.927-6.025 0-10.927 4.901-10.927 10.927a.697.697 0 1 1-1.395 0c0-6.795 5.527-12.323 12.322-12.323 4.749 0 8.872 2.705 10.928 6.65V29.25a7.06 7.06 0 0 0-7.053-7.052.697.697 0 1 1 0-1.396c2.95 0 5.541 1.523 7.053 3.82V13.75a.697.697 0 1 1 1.395 0v10.871c1.511-2.296 4.103-3.819 7.052-3.819a.697.697 0 1 1 0 1.396 7.06 7.06 0 0 0-7.052 7.052v5.954c2.055-3.945 6.178-6.65 10.927-6.65 6.795 0 12.323 5.528 12.323 12.323a.697.697 0 1 1-1.395 0c0-6.026-4.9-10.928-10.928-10.928-6.027 0-10.927 4.902-10.927 10.928v3.121c1.511-2.296 4.103-3.82 7.052-3.82 4.658 0 8.448 3.79 8.448 8.447a.697.697 0 1 1-1.395 0 7.06 7.06 0 0 0-7.053-7.053c-3.675 0-6.669 2.839-6.99 6.431ZM40 7.24C23.59 7.24 10.24 20.59 10.24 37a29.736 29.736 0 0 0 15.702 26.23.699.699 0 0 0 .945-.285.697.697 0 0 0-.285-.944A28.347 28.347 0 0 1 11.635 37C11.635 21.359 24.36 8.635 40 8.635c15.64 0 28.365 12.724 28.365 28.365 0 10.077-5.448 19.48-14.22 24.535a.697.697 0 0 0 .697 1.207C64.041 57.439 69.76 47.575 69.76 37 69.76 20.59 56.41 7.24 40 7.24Z"
                        fill="white"
                      ></path>
                    </svg>